<mxfile host="app.diagrams.net" agent="Mozilla/5.0 (Windows NT 10.0; Win64; x64) AppleWebKit/537.36 (KHTML, like Gecko) Chrome/141.0.0.0 Safari/537.36" version="28.2.7">
  <diagram name="Страница — 1" id="3WayXBRZZ2SMgkHPEbz1">
    <mxGraphModel dx="1743" dy="818" grid="1" gridSize="10" guides="1" tooltips="1" connect="1" arrows="1" fold="1" page="1" pageScale="1" pageWidth="827" pageHeight="1169" math="0" shadow="0">
      <root>
        <mxCell id="0" />
        <mxCell id="1" parent="0" />
        <mxCell id="2PTjKoxte4hmcH_rGWA3-1" value="&lt;p style=&quot;margin:0px;margin-top:4px;text-align:center;&quot;&gt;&lt;i&gt;&amp;lt;&amp;lt;Interface&amp;gt;&amp;gt;&lt;/i&gt;&lt;br&gt;&lt;b&gt;OrderManager&lt;/b&gt;&lt;/p&gt;&lt;hr size=&quot;1&quot; style=&quot;border-style:solid;&quot;&gt;&lt;p style=&quot;margin:0px;margin-left:4px;&quot;&gt;+ addOrder(orderId: Int, order: Order)&lt;br&gt;+ getOrder(orderId: Int): Order&lt;/p&gt;&lt;p style=&quot;margin:0px;margin-left:4px;&quot;&gt;+ removeOrder(orderId: Int): boolean&lt;/p&gt;" style="verticalAlign=top;align=left;overflow=fill;html=1;whiteSpace=wrap;" vertex="1" parent="1">
          <mxGeometry x="880" y="330" width="240" height="100" as="geometry" />
        </mxCell>
        <mxCell id="2PTjKoxte4hmcH_rGWA3-2" value="&lt;p style=&quot;margin:0px;margin-top:4px;text-align:center;&quot;&gt;&lt;i&gt;&amp;lt;&amp;lt;Interface&amp;gt;&amp;gt;&lt;/i&gt;&lt;br&gt;&lt;b&gt;RequestManager&lt;/b&gt;&lt;/p&gt;&lt;hr size=&quot;1&quot; style=&quot;border-style:solid;&quot;&gt;&lt;p style=&quot;margin:0px;margin-left:4px;&quot;&gt;+ addRequestr(request: Request)&lt;br&gt;+ cancelRequest(bookName: String)&lt;/p&gt;&lt;p style=&quot;margin:0px;margin-left:4px;&quot;&gt;+ getRequest(): List&amp;lt;Request&amp;gt;&lt;/p&gt;" style="verticalAlign=top;align=left;overflow=fill;html=1;whiteSpace=wrap;" vertex="1" parent="1">
          <mxGeometry x="1450" y="340" width="240" height="100" as="geometry" />
        </mxCell>
        <mxCell id="2PTjKoxte4hmcH_rGWA3-3" value="&lt;p style=&quot;margin:0px;margin-top:4px;text-align:center;&quot;&gt;&lt;i&gt;&amp;lt;&amp;lt;Interface&amp;gt;&amp;gt;&lt;/i&gt;&lt;br&gt;&lt;b&gt;Storage&lt;/b&gt;&lt;/p&gt;&lt;hr size=&quot;1&quot; style=&quot;border-style:solid;&quot;&gt;&lt;p style=&quot;margin:0px;margin-left:4px;&quot;&gt;+ addBook(book: Book)&lt;br&gt;+ getBook(bookName: String): Book&lt;/p&gt;&lt;p style=&quot;margin:0px;margin-left:4px;&quot;&gt;+ removeBook(bookName: String): boolean&lt;/p&gt;" style="verticalAlign=top;align=left;overflow=fill;html=1;whiteSpace=wrap;" vertex="1" parent="1">
          <mxGeometry x="310" y="330" width="240" height="100" as="geometry" />
        </mxCell>
        <mxCell id="2PTjKoxte4hmcH_rGWA3-4" value="Book" style="swimlane;fontStyle=1;align=center;verticalAlign=top;childLayout=stackLayout;horizontal=1;startSize=26;horizontalStack=0;resizeParent=1;resizeParentMax=0;resizeLast=0;collapsible=1;marginBottom=0;whiteSpace=wrap;html=1;" vertex="1" parent="1">
          <mxGeometry x="320" y="790" width="500" height="476" as="geometry" />
        </mxCell>
        <mxCell id="2PTjKoxte4hmcH_rGWA3-5" value="- title: String" style="text;strokeColor=none;fillColor=none;align=left;verticalAlign=top;spacingLeft=4;spacingRight=4;overflow=hidden;rotatable=0;points=[[0,0.5],[1,0.5]];portConstraint=eastwest;whiteSpace=wrap;html=1;" vertex="1" parent="2PTjKoxte4hmcH_rGWA3-4">
          <mxGeometry y="26" width="500" height="26" as="geometry" />
        </mxCell>
        <mxCell id="2PTjKoxte4hmcH_rGWA3-12" value="- description: String&lt;div&gt;&lt;br&gt;&lt;/div&gt;" style="text;strokeColor=none;fillColor=none;align=left;verticalAlign=top;spacingLeft=4;spacingRight=4;overflow=hidden;rotatable=0;points=[[0,0.5],[1,0.5]];portConstraint=eastwest;whiteSpace=wrap;html=1;" vertex="1" parent="2PTjKoxte4hmcH_rGWA3-4">
          <mxGeometry y="52" width="500" height="26" as="geometry" />
        </mxCell>
        <mxCell id="2PTjKoxte4hmcH_rGWA3-11" value="- publicationDate: Calendar" style="text;strokeColor=none;fillColor=none;align=left;verticalAlign=top;spacingLeft=4;spacingRight=4;overflow=hidden;rotatable=0;points=[[0,0.5],[1,0.5]];portConstraint=eastwest;whiteSpace=wrap;html=1;" vertex="1" parent="2PTjKoxte4hmcH_rGWA3-4">
          <mxGeometry y="78" width="500" height="26" as="geometry" />
        </mxCell>
        <mxCell id="2PTjKoxte4hmcH_rGWA3-10" value="- admissionDate: Calendar" style="text;strokeColor=none;fillColor=none;align=left;verticalAlign=top;spacingLeft=4;spacingRight=4;overflow=hidden;rotatable=0;points=[[0,0.5],[1,0.5]];portConstraint=eastwest;whiteSpace=wrap;html=1;" vertex="1" parent="2PTjKoxte4hmcH_rGWA3-4">
          <mxGeometry y="104" width="500" height="26" as="geometry" />
        </mxCell>
        <mxCell id="2PTjKoxte4hmcH_rGWA3-9" value="- price: Int" style="text;strokeColor=none;fillColor=none;align=left;verticalAlign=top;spacingLeft=4;spacingRight=4;overflow=hidden;rotatable=0;points=[[0,0.5],[1,0.5]];portConstraint=eastwest;whiteSpace=wrap;html=1;" vertex="1" parent="2PTjKoxte4hmcH_rGWA3-4">
          <mxGeometry y="130" width="500" height="26" as="geometry" />
        </mxCell>
        <mxCell id="2PTjKoxte4hmcH_rGWA3-8" value="- status: BookStatus" style="text;strokeColor=none;fillColor=none;align=left;verticalAlign=top;spacingLeft=4;spacingRight=4;overflow=hidden;rotatable=0;points=[[0,0.5],[1,0.5]];portConstraint=eastwest;whiteSpace=wrap;html=1;" vertex="1" parent="2PTjKoxte4hmcH_rGWA3-4">
          <mxGeometry y="156" width="500" height="26" as="geometry" />
        </mxCell>
        <mxCell id="2PTjKoxte4hmcH_rGWA3-6" value="" style="line;strokeWidth=1;fillColor=none;align=left;verticalAlign=middle;spacingTop=-1;spacingLeft=3;spacingRight=3;rotatable=0;labelPosition=right;points=[];portConstraint=eastwest;strokeColor=inherit;" vertex="1" parent="2PTjKoxte4hmcH_rGWA3-4">
          <mxGeometry y="182" width="500" height="8" as="geometry" />
        </mxCell>
        <mxCell id="2PTjKoxte4hmcH_rGWA3-7" value="+ Book(title: String, description: String, year: Int, month: Int, date: Int, initStatus: BookStatus)" style="text;strokeColor=none;fillColor=none;align=left;verticalAlign=top;spacingLeft=4;spacingRight=4;overflow=hidden;rotatable=0;points=[[0,0.5],[1,0.5]];portConstraint=eastwest;whiteSpace=wrap;html=1;" vertex="1" parent="2PTjKoxte4hmcH_rGWA3-4">
          <mxGeometry y="190" width="500" height="26" as="geometry" />
        </mxCell>
        <mxCell id="2PTjKoxte4hmcH_rGWA3-13" value="+ getTitle(): String" style="text;strokeColor=none;fillColor=none;align=left;verticalAlign=top;spacingLeft=4;spacingRight=4;overflow=hidden;rotatable=0;points=[[0,0.5],[1,0.5]];portConstraint=eastwest;whiteSpace=wrap;html=1;" vertex="1" parent="2PTjKoxte4hmcH_rGWA3-4">
          <mxGeometry y="216" width="500" height="26" as="geometry" />
        </mxCell>
        <mxCell id="2PTjKoxte4hmcH_rGWA3-14" value="+ getStatus(): BookStatus" style="text;strokeColor=none;fillColor=none;align=left;verticalAlign=top;spacingLeft=4;spacingRight=4;overflow=hidden;rotatable=0;points=[[0,0.5],[1,0.5]];portConstraint=eastwest;whiteSpace=wrap;html=1;" vertex="1" parent="2PTjKoxte4hmcH_rGWA3-4">
          <mxGeometry y="242" width="500" height="26" as="geometry" />
        </mxCell>
        <mxCell id="2PTjKoxte4hmcH_rGWA3-21" value="+ setStatus(status: BookStatus)" style="text;strokeColor=none;fillColor=none;align=left;verticalAlign=top;spacingLeft=4;spacingRight=4;overflow=hidden;rotatable=0;points=[[0,0.5],[1,0.5]];portConstraint=eastwest;whiteSpace=wrap;html=1;" vertex="1" parent="2PTjKoxte4hmcH_rGWA3-4">
          <mxGeometry y="268" width="500" height="26" as="geometry" />
        </mxCell>
        <mxCell id="2PTjKoxte4hmcH_rGWA3-20" value="+ setPrice(price: Int)" style="text;strokeColor=none;fillColor=none;align=left;verticalAlign=top;spacingLeft=4;spacingRight=4;overflow=hidden;rotatable=0;points=[[0,0.5],[1,0.5]];portConstraint=eastwest;whiteSpace=wrap;html=1;" vertex="1" parent="2PTjKoxte4hmcH_rGWA3-4">
          <mxGeometry y="294" width="500" height="26" as="geometry" />
        </mxCell>
        <mxCell id="2PTjKoxte4hmcH_rGWA3-19" value="+ getPrice(): Int" style="text;strokeColor=none;fillColor=none;align=left;verticalAlign=top;spacingLeft=4;spacingRight=4;overflow=hidden;rotatable=0;points=[[0,0.5],[1,0.5]];portConstraint=eastwest;whiteSpace=wrap;html=1;" vertex="1" parent="2PTjKoxte4hmcH_rGWA3-4">
          <mxGeometry y="320" width="500" height="26" as="geometry" />
        </mxCell>
        <mxCell id="2PTjKoxte4hmcH_rGWA3-18" value="+ getDate(): Calendar" style="text;strokeColor=none;fillColor=none;align=left;verticalAlign=top;spacingLeft=4;spacingRight=4;overflow=hidden;rotatable=0;points=[[0,0.5],[1,0.5]];portConstraint=eastwest;whiteSpace=wrap;html=1;" vertex="1" parent="2PTjKoxte4hmcH_rGWA3-4">
          <mxGeometry y="346" width="500" height="26" as="geometry" />
        </mxCell>
        <mxCell id="2PTjKoxte4hmcH_rGWA3-17" value="+ setDate(year: Int, month: Int, date: Int)" style="text;strokeColor=none;fillColor=none;align=left;verticalAlign=top;spacingLeft=4;spacingRight=4;overflow=hidden;rotatable=0;points=[[0,0.5],[1,0.5]];portConstraint=eastwest;whiteSpace=wrap;html=1;" vertex="1" parent="2PTjKoxte4hmcH_rGWA3-4">
          <mxGeometry y="372" width="500" height="26" as="geometry" />
        </mxCell>
        <mxCell id="2PTjKoxte4hmcH_rGWA3-16" value="+ getAdmissionDate(): Calendar" style="text;strokeColor=none;fillColor=none;align=left;verticalAlign=top;spacingLeft=4;spacingRight=4;overflow=hidden;rotatable=0;points=[[0,0.5],[1,0.5]];portConstraint=eastwest;whiteSpace=wrap;html=1;" vertex="1" parent="2PTjKoxte4hmcH_rGWA3-4">
          <mxGeometry y="398" width="500" height="26" as="geometry" />
        </mxCell>
        <mxCell id="2PTjKoxte4hmcH_rGWA3-15" value="+ getDescription(): String" style="text;strokeColor=none;fillColor=none;align=left;verticalAlign=top;spacingLeft=4;spacingRight=4;overflow=hidden;rotatable=0;points=[[0,0.5],[1,0.5]];portConstraint=eastwest;whiteSpace=wrap;html=1;" vertex="1" parent="2PTjKoxte4hmcH_rGWA3-4">
          <mxGeometry y="424" width="500" height="26" as="geometry" />
        </mxCell>
        <mxCell id="2PTjKoxte4hmcH_rGWA3-23" value="+ getPublicationDate(): Calendar" style="text;strokeColor=none;fillColor=none;align=left;verticalAlign=top;spacingLeft=4;spacingRight=4;overflow=hidden;rotatable=0;points=[[0,0.5],[1,0.5]];portConstraint=eastwest;whiteSpace=wrap;html=1;" vertex="1" parent="2PTjKoxte4hmcH_rGWA3-4">
          <mxGeometry y="450" width="500" height="26" as="geometry" />
        </mxCell>
        <mxCell id="2PTjKoxte4hmcH_rGWA3-25" value="Order" style="swimlane;fontStyle=1;align=center;verticalAlign=top;childLayout=stackLayout;horizontal=1;startSize=26;horizontalStack=0;resizeParent=1;resizeParentMax=0;resizeLast=0;collapsible=1;marginBottom=0;whiteSpace=wrap;html=1;" vertex="1" parent="1">
          <mxGeometry x="880" y="790" width="360" height="372" as="geometry" />
        </mxCell>
        <mxCell id="2PTjKoxte4hmcH_rGWA3-26" value="- id: Int" style="text;strokeColor=none;fillColor=none;align=left;verticalAlign=top;spacingLeft=4;spacingRight=4;overflow=hidden;rotatable=0;points=[[0,0.5],[1,0.5]];portConstraint=eastwest;whiteSpace=wrap;html=1;" vertex="1" parent="2PTjKoxte4hmcH_rGWA3-25">
          <mxGeometry y="26" width="360" height="26" as="geometry" />
        </mxCell>
        <mxCell id="2PTjKoxte4hmcH_rGWA3-27" value="- orderedBookNames: List&amp;lt;String&amp;gt;&lt;div&gt;&lt;br&gt;&lt;/div&gt;" style="text;strokeColor=none;fillColor=none;align=left;verticalAlign=top;spacingLeft=4;spacingRight=4;overflow=hidden;rotatable=0;points=[[0,0.5],[1,0.5]];portConstraint=eastwest;whiteSpace=wrap;html=1;" vertex="1" parent="2PTjKoxte4hmcH_rGWA3-25">
          <mxGeometry y="52" width="360" height="26" as="geometry" />
        </mxCell>
        <mxCell id="2PTjKoxte4hmcH_rGWA3-28" value="- customerName: String" style="text;strokeColor=none;fillColor=none;align=left;verticalAlign=top;spacingLeft=4;spacingRight=4;overflow=hidden;rotatable=0;points=[[0,0.5],[1,0.5]];portConstraint=eastwest;whiteSpace=wrap;html=1;" vertex="1" parent="2PTjKoxte4hmcH_rGWA3-25">
          <mxGeometry y="78" width="360" height="26" as="geometry" />
        </mxCell>
        <mxCell id="2PTjKoxte4hmcH_rGWA3-29" value="- completionDate: Calendar" style="text;strokeColor=none;fillColor=none;align=left;verticalAlign=top;spacingLeft=4;spacingRight=4;overflow=hidden;rotatable=0;points=[[0,0.5],[1,0.5]];portConstraint=eastwest;whiteSpace=wrap;html=1;" vertex="1" parent="2PTjKoxte4hmcH_rGWA3-25">
          <mxGeometry y="104" width="360" height="26" as="geometry" />
        </mxCell>
        <mxCell id="2PTjKoxte4hmcH_rGWA3-30" value="- status: OrderStatus" style="text;strokeColor=none;fillColor=none;align=left;verticalAlign=top;spacingLeft=4;spacingRight=4;overflow=hidden;rotatable=0;points=[[0,0.5],[1,0.5]];portConstraint=eastwest;whiteSpace=wrap;html=1;" vertex="1" parent="2PTjKoxte4hmcH_rGWA3-25">
          <mxGeometry y="130" width="360" height="26" as="geometry" />
        </mxCell>
        <mxCell id="2PTjKoxte4hmcH_rGWA3-32" value="" style="line;strokeWidth=1;fillColor=none;align=left;verticalAlign=middle;spacingTop=-1;spacingLeft=3;spacingRight=3;rotatable=0;labelPosition=right;points=[];portConstraint=eastwest;strokeColor=inherit;" vertex="1" parent="2PTjKoxte4hmcH_rGWA3-25">
          <mxGeometry y="156" width="360" height="8" as="geometry" />
        </mxCell>
        <mxCell id="2PTjKoxte4hmcH_rGWA3-33" value="+ Order(id: Int, bookNames: List&amp;lt;String&amp;gt;, customerName: String)" style="text;strokeColor=none;fillColor=none;align=left;verticalAlign=top;spacingLeft=4;spacingRight=4;overflow=hidden;rotatable=0;points=[[0,0.5],[1,0.5]];portConstraint=eastwest;whiteSpace=wrap;html=1;" vertex="1" parent="2PTjKoxte4hmcH_rGWA3-25">
          <mxGeometry y="164" width="360" height="26" as="geometry" />
        </mxCell>
        <mxCell id="2PTjKoxte4hmcH_rGWA3-34" value="+ getId(): Int" style="text;strokeColor=none;fillColor=none;align=left;verticalAlign=top;spacingLeft=4;spacingRight=4;overflow=hidden;rotatable=0;points=[[0,0.5],[1,0.5]];portConstraint=eastwest;whiteSpace=wrap;html=1;" vertex="1" parent="2PTjKoxte4hmcH_rGWA3-25">
          <mxGeometry y="190" width="360" height="26" as="geometry" />
        </mxCell>
        <mxCell id="2PTjKoxte4hmcH_rGWA3-35" value="+ getOrderedBookNames(): List&amp;lt;String&amp;gt;" style="text;strokeColor=none;fillColor=none;align=left;verticalAlign=top;spacingLeft=4;spacingRight=4;overflow=hidden;rotatable=0;points=[[0,0.5],[1,0.5]];portConstraint=eastwest;whiteSpace=wrap;html=1;" vertex="1" parent="2PTjKoxte4hmcH_rGWA3-25">
          <mxGeometry y="216" width="360" height="26" as="geometry" />
        </mxCell>
        <mxCell id="2PTjKoxte4hmcH_rGWA3-44" value="+ getStatus(): OrderStatus" style="text;strokeColor=none;fillColor=none;align=left;verticalAlign=top;spacingLeft=4;spacingRight=4;overflow=hidden;rotatable=0;points=[[0,0.5],[1,0.5]];portConstraint=eastwest;whiteSpace=wrap;html=1;" vertex="1" parent="2PTjKoxte4hmcH_rGWA3-25">
          <mxGeometry y="242" width="360" height="26" as="geometry" />
        </mxCell>
        <mxCell id="2PTjKoxte4hmcH_rGWA3-36" value="+ setStatus(status: OrderStatus)" style="text;strokeColor=none;fillColor=none;align=left;verticalAlign=top;spacingLeft=4;spacingRight=4;overflow=hidden;rotatable=0;points=[[0,0.5],[1,0.5]];portConstraint=eastwest;whiteSpace=wrap;html=1;" vertex="1" parent="2PTjKoxte4hmcH_rGWA3-25">
          <mxGeometry y="268" width="360" height="26" as="geometry" />
        </mxCell>
        <mxCell id="2PTjKoxte4hmcH_rGWA3-37" value="+ getCustomerName(): String" style="text;strokeColor=none;fillColor=none;align=left;verticalAlign=top;spacingLeft=4;spacingRight=4;overflow=hidden;rotatable=0;points=[[0,0.5],[1,0.5]];portConstraint=eastwest;whiteSpace=wrap;html=1;" vertex="1" parent="2PTjKoxte4hmcH_rGWA3-25">
          <mxGeometry y="294" width="360" height="26" as="geometry" />
        </mxCell>
        <mxCell id="2PTjKoxte4hmcH_rGWA3-38" value="+ setCompletionDate(year: Int, month: Int, date: Int);" style="text;strokeColor=none;fillColor=none;align=left;verticalAlign=top;spacingLeft=4;spacingRight=4;overflow=hidden;rotatable=0;points=[[0,0.5],[1,0.5]];portConstraint=eastwest;whiteSpace=wrap;html=1;" vertex="1" parent="2PTjKoxte4hmcH_rGWA3-25">
          <mxGeometry y="320" width="360" height="26" as="geometry" />
        </mxCell>
        <mxCell id="2PTjKoxte4hmcH_rGWA3-39" value="+ getCompletionDate(): Calendar" style="text;strokeColor=none;fillColor=none;align=left;verticalAlign=top;spacingLeft=4;spacingRight=4;overflow=hidden;rotatable=0;points=[[0,0.5],[1,0.5]];portConstraint=eastwest;whiteSpace=wrap;html=1;" vertex="1" parent="2PTjKoxte4hmcH_rGWA3-25">
          <mxGeometry y="346" width="360" height="26" as="geometry" />
        </mxCell>
        <mxCell id="2PTjKoxte4hmcH_rGWA3-45" value="Request" style="swimlane;fontStyle=1;align=center;verticalAlign=top;childLayout=stackLayout;horizontal=1;startSize=26;horizontalStack=0;resizeParent=1;resizeParentMax=0;resizeLast=0;collapsible=1;marginBottom=0;whiteSpace=wrap;html=1;" vertex="1" parent="1">
          <mxGeometry x="1480.5" y="770" width="179" height="112" as="geometry" />
        </mxCell>
        <mxCell id="2PTjKoxte4hmcH_rGWA3-46" value="- bookName: String" style="text;strokeColor=none;fillColor=none;align=left;verticalAlign=top;spacingLeft=4;spacingRight=4;overflow=hidden;rotatable=0;points=[[0,0.5],[1,0.5]];portConstraint=eastwest;whiteSpace=wrap;html=1;" vertex="1" parent="2PTjKoxte4hmcH_rGWA3-45">
          <mxGeometry y="26" width="179" height="26" as="geometry" />
        </mxCell>
        <mxCell id="2PTjKoxte4hmcH_rGWA3-51" value="" style="line;strokeWidth=1;fillColor=none;align=left;verticalAlign=middle;spacingTop=-1;spacingLeft=3;spacingRight=3;rotatable=0;labelPosition=right;points=[];portConstraint=eastwest;strokeColor=inherit;" vertex="1" parent="2PTjKoxte4hmcH_rGWA3-45">
          <mxGeometry y="52" width="179" height="8" as="geometry" />
        </mxCell>
        <mxCell id="2PTjKoxte4hmcH_rGWA3-52" value="+ Request(bookName: String)" style="text;strokeColor=none;fillColor=none;align=left;verticalAlign=top;spacingLeft=4;spacingRight=4;overflow=hidden;rotatable=0;points=[[0,0.5],[1,0.5]];portConstraint=eastwest;whiteSpace=wrap;html=1;" vertex="1" parent="2PTjKoxte4hmcH_rGWA3-45">
          <mxGeometry y="60" width="179" height="26" as="geometry" />
        </mxCell>
        <mxCell id="2PTjKoxte4hmcH_rGWA3-53" value="+ getBookName(): String" style="text;strokeColor=none;fillColor=none;align=left;verticalAlign=top;spacingLeft=4;spacingRight=4;overflow=hidden;rotatable=0;points=[[0,0.5],[1,0.5]];portConstraint=eastwest;whiteSpace=wrap;html=1;" vertex="1" parent="2PTjKoxte4hmcH_rGWA3-45">
          <mxGeometry y="86" width="179" height="26" as="geometry" />
        </mxCell>
        <mxCell id="2PTjKoxte4hmcH_rGWA3-79" value="&lt;p style=&quot;margin:0px;margin-top:4px;text-align:center;&quot;&gt;&lt;i&gt;&amp;lt;&amp;lt;Enum&amp;gt;&amp;gt;&lt;/i&gt;&lt;br&gt;&lt;b&gt;BookStatus&lt;/b&gt;&lt;/p&gt;&lt;hr size=&quot;1&quot; style=&quot;border-style:solid;&quot;&gt;&lt;p style=&quot;margin:0px;margin-left:4px;&quot;&gt;FREE&lt;/p&gt;&lt;p style=&quot;margin:0px;margin-left:4px;&quot;&gt;RESERVED&lt;/p&gt;&lt;p style=&quot;margin:0px;margin-left:4px;&quot;&gt;SOLD_OUT&lt;/p&gt;" style="verticalAlign=top;align=left;overflow=fill;html=1;whiteSpace=wrap;" vertex="1" parent="1">
          <mxGeometry x="90" y="909" width="110" height="100" as="geometry" />
        </mxCell>
        <mxCell id="2PTjKoxte4hmcH_rGWA3-80" value="&lt;p style=&quot;margin:0px;margin-top:4px;text-align:center;&quot;&gt;&lt;i&gt;&amp;lt;&amp;lt;Enum&amp;gt;&amp;gt;&lt;/i&gt;&lt;br&gt;&lt;b&gt;OrderStatus&lt;/b&gt;&lt;/p&gt;&lt;hr size=&quot;1&quot; style=&quot;border-style:solid;&quot;&gt;&lt;p style=&quot;margin:0px;margin-left:4px;&quot;&gt;NEW&lt;/p&gt;&lt;p style=&quot;margin:0px;margin-left:4px;&quot;&gt;COMPLETED&lt;/p&gt;&lt;p style=&quot;margin:0px;margin-left:4px;&quot;&gt;CANCELED&lt;/p&gt;" style="verticalAlign=top;align=left;overflow=fill;html=1;whiteSpace=wrap;" vertex="1" parent="1">
          <mxGeometry x="1340" y="950" width="100" height="100" as="geometry" />
        </mxCell>
        <mxCell id="2PTjKoxte4hmcH_rGWA3-83" value="1" style="endArrow=open;html=1;endSize=12;startArrow=diamondThin;startSize=14;startFill=1;edgeStyle=orthogonalEdgeStyle;align=left;verticalAlign=bottom;rounded=0;exitX=0;exitY=0.5;exitDx=0;exitDy=0;entryX=1;entryY=0.5;entryDx=0;entryDy=0;" edge="1" parent="1" source="2PTjKoxte4hmcH_rGWA3-8" target="2PTjKoxte4hmcH_rGWA3-79">
          <mxGeometry x="-0.6471" y="1" relative="1" as="geometry">
            <mxPoint x="500" y="920" as="sourcePoint" />
            <mxPoint x="660" y="920" as="targetPoint" />
            <mxPoint as="offset" />
          </mxGeometry>
        </mxCell>
        <mxCell id="2PTjKoxte4hmcH_rGWA3-84" value="1" style="endArrow=open;html=1;endSize=12;startArrow=diamondThin;startSize=14;startFill=1;edgeStyle=orthogonalEdgeStyle;align=left;verticalAlign=bottom;rounded=0;entryX=0.5;entryY=0;entryDx=0;entryDy=0;" edge="1" parent="1" target="2PTjKoxte4hmcH_rGWA3-80">
          <mxGeometry x="-1" y="3" relative="1" as="geometry">
            <mxPoint x="1240" y="930" as="sourcePoint" />
            <mxPoint x="1400" y="930" as="targetPoint" />
          </mxGeometry>
        </mxCell>
        <mxCell id="2PTjKoxte4hmcH_rGWA3-85" value="Use" style="endArrow=open;endSize=12;dashed=1;html=1;rounded=0;" edge="1" parent="1" target="2PTjKoxte4hmcH_rGWA3-80">
          <mxGeometry width="160" relative="1" as="geometry">
            <mxPoint x="1240" y="970" as="sourcePoint" />
            <mxPoint x="1400" y="970" as="targetPoint" />
          </mxGeometry>
        </mxCell>
        <mxCell id="2PTjKoxte4hmcH_rGWA3-86" value="Use" style="endArrow=open;endSize=12;dashed=1;html=1;rounded=0;entryX=0.003;entryY=0.42;entryDx=0;entryDy=0;entryPerimeter=0;" edge="1" parent="1" target="2PTjKoxte4hmcH_rGWA3-80">
          <mxGeometry width="160" relative="1" as="geometry">
            <mxPoint x="1240" y="1070" as="sourcePoint" />
            <mxPoint x="1340" y="1090" as="targetPoint" />
          </mxGeometry>
        </mxCell>
        <mxCell id="2PTjKoxte4hmcH_rGWA3-87" value="Use" style="endArrow=open;endSize=12;dashed=1;html=1;rounded=0;exitX=0;exitY=0.5;exitDx=0;exitDy=0;" edge="1" parent="1" source="2PTjKoxte4hmcH_rGWA3-21">
          <mxGeometry width="160" relative="1" as="geometry">
            <mxPoint x="80" y="1110" as="sourcePoint" />
            <mxPoint x="200" y="960" as="targetPoint" />
          </mxGeometry>
        </mxCell>
        <mxCell id="2PTjKoxte4hmcH_rGWA3-88" value="Use" style="endArrow=open;endSize=12;dashed=1;html=1;rounded=0;exitX=0;exitY=0.5;exitDx=0;exitDy=0;entryX=1;entryY=0.5;entryDx=0;entryDy=0;" edge="1" parent="1" target="2PTjKoxte4hmcH_rGWA3-79">
          <mxGeometry width="160" relative="1" as="geometry">
            <mxPoint x="320" y="991" as="sourcePoint" />
            <mxPoint x="200" y="880" as="targetPoint" />
          </mxGeometry>
        </mxCell>
        <mxCell id="2PTjKoxte4hmcH_rGWA3-89" value="BookOrderManager" style="swimlane;fontStyle=1;align=center;verticalAlign=top;childLayout=stackLayout;horizontal=1;startSize=26;horizontalStack=0;resizeParent=1;resizeParentMax=0;resizeLast=0;collapsible=1;marginBottom=0;whiteSpace=wrap;html=1;" vertex="1" parent="1">
          <mxGeometry x="880" y="490" width="240" height="60" as="geometry" />
        </mxCell>
        <mxCell id="2PTjKoxte4hmcH_rGWA3-91" value="" style="line;strokeWidth=1;fillColor=none;align=left;verticalAlign=middle;spacingTop=-1;spacingLeft=3;spacingRight=3;rotatable=0;labelPosition=right;points=[];portConstraint=eastwest;strokeColor=inherit;" vertex="1" parent="2PTjKoxte4hmcH_rGWA3-89">
          <mxGeometry y="26" width="240" height="8" as="geometry" />
        </mxCell>
        <mxCell id="2PTjKoxte4hmcH_rGWA3-90" value="- orders: HashMap&amp;lt;Integer, Order&amp;gt;&amp;nbsp;" style="text;strokeColor=none;fillColor=none;align=left;verticalAlign=top;spacingLeft=4;spacingRight=4;overflow=hidden;rotatable=0;points=[[0,0.5],[1,0.5]];portConstraint=eastwest;whiteSpace=wrap;html=1;" vertex="1" parent="2PTjKoxte4hmcH_rGWA3-89">
          <mxGeometry y="34" width="240" height="26" as="geometry" />
        </mxCell>
        <mxCell id="2PTjKoxte4hmcH_rGWA3-93" value="" style="endArrow=block;dashed=1;endFill=0;endSize=12;html=1;rounded=0;exitX=0.5;exitY=0;exitDx=0;exitDy=0;entryX=0.5;entryY=1;entryDx=0;entryDy=0;" edge="1" parent="1" source="2PTjKoxte4hmcH_rGWA3-89" target="2PTjKoxte4hmcH_rGWA3-1">
          <mxGeometry width="160" relative="1" as="geometry">
            <mxPoint x="1000" y="490" as="sourcePoint" />
            <mxPoint x="1120" y="470" as="targetPoint" />
          </mxGeometry>
        </mxCell>
        <mxCell id="2PTjKoxte4hmcH_rGWA3-94" value="BookRequestManager" style="swimlane;fontStyle=1;align=center;verticalAlign=top;childLayout=stackLayout;horizontal=1;startSize=26;horizontalStack=0;resizeParent=1;resizeParentMax=0;resizeLast=0;collapsible=1;marginBottom=0;whiteSpace=wrap;html=1;" vertex="1" parent="1">
          <mxGeometry x="1450" y="503" width="240" height="60" as="geometry" />
        </mxCell>
        <mxCell id="2PTjKoxte4hmcH_rGWA3-95" value="- requests: List&amp;lt;Request&amp;gt;&amp;nbsp;" style="text;strokeColor=none;fillColor=none;align=left;verticalAlign=top;spacingLeft=4;spacingRight=4;overflow=hidden;rotatable=0;points=[[0,0.5],[1,0.5]];portConstraint=eastwest;whiteSpace=wrap;html=1;" vertex="1" parent="2PTjKoxte4hmcH_rGWA3-94">
          <mxGeometry y="26" width="240" height="26" as="geometry" />
        </mxCell>
        <mxCell id="2PTjKoxte4hmcH_rGWA3-96" value="" style="line;strokeWidth=1;fillColor=none;align=left;verticalAlign=middle;spacingTop=-1;spacingLeft=3;spacingRight=3;rotatable=0;labelPosition=right;points=[];portConstraint=eastwest;strokeColor=inherit;" vertex="1" parent="2PTjKoxte4hmcH_rGWA3-94">
          <mxGeometry y="52" width="240" height="8" as="geometry" />
        </mxCell>
        <mxCell id="2PTjKoxte4hmcH_rGWA3-97" value="" style="endArrow=block;dashed=1;endFill=0;endSize=12;html=1;rounded=0;exitX=0.5;exitY=0;exitDx=0;exitDy=0;" edge="1" parent="1" source="2PTjKoxte4hmcH_rGWA3-94" target="2PTjKoxte4hmcH_rGWA3-2">
          <mxGeometry width="160" relative="1" as="geometry">
            <mxPoint x="1660" y="510" as="sourcePoint" />
            <mxPoint x="1820" y="510" as="targetPoint" />
          </mxGeometry>
        </mxCell>
        <mxCell id="2PTjKoxte4hmcH_rGWA3-101" value="" style="endArrow=block;dashed=1;endFill=0;endSize=12;html=1;rounded=0;exitX=0.5;exitY=0;exitDx=0;exitDy=0;entryX=0.5;entryY=1;entryDx=0;entryDy=0;" edge="1" parent="1" source="2PTjKoxte4hmcH_rGWA3-104" target="2PTjKoxte4hmcH_rGWA3-3">
          <mxGeometry width="160" relative="1" as="geometry">
            <mxPoint x="1060" y="480" as="sourcePoint" />
            <mxPoint x="1220" y="480" as="targetPoint" />
          </mxGeometry>
        </mxCell>
        <mxCell id="2PTjKoxte4hmcH_rGWA3-104" value="BookStorage" style="swimlane;fontStyle=1;align=center;verticalAlign=top;childLayout=stackLayout;horizontal=1;startSize=26;horizontalStack=0;resizeParent=1;resizeParentMax=0;resizeLast=0;collapsible=1;marginBottom=0;whiteSpace=wrap;html=1;" vertex="1" parent="1">
          <mxGeometry x="310" y="490" width="240" height="86" as="geometry" />
        </mxCell>
        <mxCell id="2PTjKoxte4hmcH_rGWA3-105" value="- storage: HashMap&amp;lt;String, Book&amp;gt;&amp;nbsp;" style="text;strokeColor=none;fillColor=none;align=left;verticalAlign=top;spacingLeft=4;spacingRight=4;overflow=hidden;rotatable=0;points=[[0,0.5],[1,0.5]];portConstraint=eastwest;whiteSpace=wrap;html=1;" vertex="1" parent="2PTjKoxte4hmcH_rGWA3-104">
          <mxGeometry y="26" width="240" height="26" as="geometry" />
        </mxCell>
        <mxCell id="2PTjKoxte4hmcH_rGWA3-106" value="" style="line;strokeWidth=1;fillColor=none;align=left;verticalAlign=middle;spacingTop=-1;spacingLeft=3;spacingRight=3;rotatable=0;labelPosition=right;points=[];portConstraint=eastwest;strokeColor=inherit;" vertex="1" parent="2PTjKoxte4hmcH_rGWA3-104">
          <mxGeometry y="52" width="240" height="8" as="geometry" />
        </mxCell>
        <mxCell id="2PTjKoxte4hmcH_rGWA3-107" value="+ BookStorage()" style="text;strokeColor=none;fillColor=none;align=left;verticalAlign=top;spacingLeft=4;spacingRight=4;overflow=hidden;rotatable=0;points=[[0,0.5],[1,0.5]];portConstraint=eastwest;whiteSpace=wrap;html=1;" vertex="1" parent="2PTjKoxte4hmcH_rGWA3-104">
          <mxGeometry y="60" width="240" height="26" as="geometry" />
        </mxCell>
        <mxCell id="2PTjKoxte4hmcH_rGWA3-109" value="1..N" style="endArrow=open;html=1;endSize=12;startArrow=diamondThin;startSize=14;startFill=0;edgeStyle=orthogonalEdgeStyle;align=left;verticalAlign=bottom;rounded=0;entryX=0.5;entryY=0;entryDx=0;entryDy=0;" edge="1" parent="1" target="2PTjKoxte4hmcH_rGWA3-45">
          <mxGeometry x="-0.9091" y="-10" relative="1" as="geometry">
            <mxPoint x="1450" y="540" as="sourcePoint" />
            <mxPoint x="1460" y="650" as="targetPoint" />
            <Array as="points">
              <mxPoint x="1290" y="540" />
              <mxPoint x="1290" y="650" />
              <mxPoint x="1570" y="650" />
            </Array>
            <mxPoint as="offset" />
          </mxGeometry>
        </mxCell>
        <mxCell id="2PTjKoxte4hmcH_rGWA3-111" value="1..N" style="endArrow=open;html=1;endSize=12;startArrow=diamondThin;startSize=14;startFill=0;edgeStyle=orthogonalEdgeStyle;align=left;verticalAlign=bottom;rounded=0;entryX=0.5;entryY=0;entryDx=0;entryDy=0;" edge="1" parent="1" target="2PTjKoxte4hmcH_rGWA3-25">
          <mxGeometry x="-0.8545" relative="1" as="geometry">
            <mxPoint x="880" y="540" as="sourcePoint" />
            <mxPoint x="1000" y="770" as="targetPoint" />
            <Array as="points">
              <mxPoint x="820" y="540" />
              <mxPoint x="820" y="650" />
              <mxPoint x="1060" y="650" />
            </Array>
            <mxPoint as="offset" />
          </mxGeometry>
        </mxCell>
        <mxCell id="2PTjKoxte4hmcH_rGWA3-112" value="1..N" style="endArrow=open;html=1;endSize=12;startArrow=diamondThin;startSize=14;startFill=0;edgeStyle=orthogonalEdgeStyle;align=left;verticalAlign=bottom;rounded=0;entryX=0.5;entryY=0;entryDx=0;entryDy=0;" edge="1" parent="1" target="2PTjKoxte4hmcH_rGWA3-4">
          <mxGeometry x="-0.8545" relative="1" as="geometry">
            <mxPoint x="310" y="530" as="sourcePoint" />
            <mxPoint x="490" y="780" as="targetPoint" />
            <Array as="points">
              <mxPoint x="250" y="530" />
              <mxPoint x="250" y="640" />
              <mxPoint x="570" y="640" />
            </Array>
            <mxPoint as="offset" />
          </mxGeometry>
        </mxCell>
        <mxCell id="2PTjKoxte4hmcH_rGWA3-113" value="BookStore" style="swimlane;fontStyle=1;align=center;verticalAlign=top;childLayout=stackLayout;horizontal=1;startSize=26;horizontalStack=0;resizeParent=1;resizeParentMax=0;resizeLast=0;collapsible=1;marginBottom=0;whiteSpace=wrap;html=1;" vertex="1" parent="1">
          <mxGeometry x="1832" y="20" width="470" height="268" as="geometry" />
        </mxCell>
        <mxCell id="2PTjKoxte4hmcH_rGWA3-114" value="- orderManager: BookOrderManager" style="text;strokeColor=none;fillColor=none;align=left;verticalAlign=top;spacingLeft=4;spacingRight=4;overflow=hidden;rotatable=0;points=[[0,0.5],[1,0.5]];portConstraint=eastwest;whiteSpace=wrap;html=1;" vertex="1" parent="2PTjKoxte4hmcH_rGWA3-113">
          <mxGeometry y="26" width="470" height="26" as="geometry" />
        </mxCell>
        <mxCell id="2PTjKoxte4hmcH_rGWA3-117" value="- bookStorage: Storage" style="text;strokeColor=none;fillColor=none;align=left;verticalAlign=top;spacingLeft=4;spacingRight=4;overflow=hidden;rotatable=0;points=[[0,0.5],[1,0.5]];portConstraint=eastwest;whiteSpace=wrap;html=1;" vertex="1" parent="2PTjKoxte4hmcH_rGWA3-113">
          <mxGeometry y="52" width="470" height="26" as="geometry" />
        </mxCell>
        <mxCell id="2PTjKoxte4hmcH_rGWA3-118" value="- requestManager:&amp;nbsp; RequestManager" style="text;strokeColor=none;fillColor=none;align=left;verticalAlign=top;spacingLeft=4;spacingRight=4;overflow=hidden;rotatable=0;points=[[0,0.5],[1,0.5]];portConstraint=eastwest;whiteSpace=wrap;html=1;" vertex="1" parent="2PTjKoxte4hmcH_rGWA3-113">
          <mxGeometry y="78" width="470" height="26" as="geometry" />
        </mxCell>
        <mxCell id="2PTjKoxte4hmcH_rGWA3-115" value="" style="line;strokeWidth=1;fillColor=none;align=left;verticalAlign=middle;spacingTop=-1;spacingLeft=3;spacingRight=3;rotatable=0;labelPosition=right;points=[];portConstraint=eastwest;strokeColor=inherit;" vertex="1" parent="2PTjKoxte4hmcH_rGWA3-113">
          <mxGeometry y="104" width="470" height="8" as="geometry" />
        </mxCell>
        <mxCell id="2PTjKoxte4hmcH_rGWA3-116" value="+ writeOffBook(bookName: String)" style="text;strokeColor=none;fillColor=none;align=left;verticalAlign=top;spacingLeft=4;spacingRight=4;overflow=hidden;rotatable=0;points=[[0,0.5],[1,0.5]];portConstraint=eastwest;whiteSpace=wrap;html=1;" vertex="1" parent="2PTjKoxte4hmcH_rGWA3-113">
          <mxGeometry y="112" width="470" height="26" as="geometry" />
        </mxCell>
        <mxCell id="2PTjKoxte4hmcH_rGWA3-119" value="+ createOrder(orderId: Int, bookNames: List&amp;lt;String&amp;gt;, customerName: String)" style="text;strokeColor=none;fillColor=none;align=left;verticalAlign=top;spacingLeft=4;spacingRight=4;overflow=hidden;rotatable=0;points=[[0,0.5],[1,0.5]];portConstraint=eastwest;whiteSpace=wrap;html=1;" vertex="1" parent="2PTjKoxte4hmcH_rGWA3-113">
          <mxGeometry y="138" width="470" height="26" as="geometry" />
        </mxCell>
        <mxCell id="2PTjKoxte4hmcH_rGWA3-123" value="+ cancelOrder(orderId: Int)" style="text;strokeColor=none;fillColor=none;align=left;verticalAlign=top;spacingLeft=4;spacingRight=4;overflow=hidden;rotatable=0;points=[[0,0.5],[1,0.5]];portConstraint=eastwest;whiteSpace=wrap;html=1;" vertex="1" parent="2PTjKoxte4hmcH_rGWA3-113">
          <mxGeometry y="164" width="470" height="26" as="geometry" />
        </mxCell>
        <mxCell id="2PTjKoxte4hmcH_rGWA3-122" value="+ changeOrderStatus(orderId: Int, newStatus: OrderStatus)" style="text;strokeColor=none;fillColor=none;align=left;verticalAlign=top;spacingLeft=4;spacingRight=4;overflow=hidden;rotatable=0;points=[[0,0.5],[1,0.5]];portConstraint=eastwest;whiteSpace=wrap;html=1;" vertex="1" parent="2PTjKoxte4hmcH_rGWA3-113">
          <mxGeometry y="190" width="470" height="26" as="geometry" />
        </mxCell>
        <mxCell id="2PTjKoxte4hmcH_rGWA3-121" value="+ addBookToStorage(bookName: String)" style="text;strokeColor=none;fillColor=none;align=left;verticalAlign=top;spacingLeft=4;spacingRight=4;overflow=hidden;rotatable=0;points=[[0,0.5],[1,0.5]];portConstraint=eastwest;whiteSpace=wrap;html=1;" vertex="1" parent="2PTjKoxte4hmcH_rGWA3-113">
          <mxGeometry y="216" width="470" height="26" as="geometry" />
        </mxCell>
        <mxCell id="2PTjKoxte4hmcH_rGWA3-120" value="+ createRequest(bookName: String)" style="text;strokeColor=none;fillColor=none;align=left;verticalAlign=top;spacingLeft=4;spacingRight=4;overflow=hidden;rotatable=0;points=[[0,0.5],[1,0.5]];portConstraint=eastwest;whiteSpace=wrap;html=1;" vertex="1" parent="2PTjKoxte4hmcH_rGWA3-113">
          <mxGeometry y="242" width="470" height="26" as="geometry" />
        </mxCell>
        <mxCell id="2PTjKoxte4hmcH_rGWA3-124" value="1" style="endArrow=open;html=1;endSize=12;startArrow=diamondThin;startSize=14;startFill=1;edgeStyle=orthogonalEdgeStyle;align=left;verticalAlign=bottom;rounded=0;exitX=0;exitY=0.5;exitDx=0;exitDy=0;entryX=0.5;entryY=0;entryDx=0;entryDy=0;" edge="1" parent="1" source="2PTjKoxte4hmcH_rGWA3-118" target="2PTjKoxte4hmcH_rGWA3-2">
          <mxGeometry x="-1" y="3" relative="1" as="geometry">
            <mxPoint x="1370" y="370" as="sourcePoint" />
            <mxPoint x="1530" y="370" as="targetPoint" />
          </mxGeometry>
        </mxCell>
        <mxCell id="2PTjKoxte4hmcH_rGWA3-125" value="1" style="endArrow=open;html=1;endSize=12;startArrow=diamondThin;startSize=14;startFill=1;edgeStyle=orthogonalEdgeStyle;align=left;verticalAlign=bottom;rounded=0;exitX=0;exitY=0.5;exitDx=0;exitDy=0;entryX=0.5;entryY=0;entryDx=0;entryDy=0;" edge="1" parent="1" source="2PTjKoxte4hmcH_rGWA3-117" target="2PTjKoxte4hmcH_rGWA3-1">
          <mxGeometry x="-1" y="3" relative="1" as="geometry">
            <mxPoint x="1659.5" y="90" as="sourcePoint" />
            <mxPoint x="1509.5" y="319" as="targetPoint" />
          </mxGeometry>
        </mxCell>
        <mxCell id="2PTjKoxte4hmcH_rGWA3-126" value="1" style="endArrow=open;html=1;endSize=12;startArrow=diamondThin;startSize=14;startFill=1;edgeStyle=orthogonalEdgeStyle;align=left;verticalAlign=bottom;rounded=0;exitX=0;exitY=0.5;exitDx=0;exitDy=0;entryX=0.5;entryY=0;entryDx=0;entryDy=0;" edge="1" parent="1" source="2PTjKoxte4hmcH_rGWA3-114" target="2PTjKoxte4hmcH_rGWA3-3">
          <mxGeometry x="-1" y="3" relative="1" as="geometry">
            <mxPoint x="1720" y="60" as="sourcePoint" />
            <mxPoint x="750" y="300" as="targetPoint" />
            <Array as="points">
              <mxPoint x="430" y="60" />
            </Array>
          </mxGeometry>
        </mxCell>
        <mxCell id="2PTjKoxte4hmcH_rGWA3-127" value="Use" style="endArrow=open;endSize=12;dashed=1;html=1;rounded=0;exitX=0;exitY=0.5;exitDx=0;exitDy=0;entryX=1;entryY=0.5;entryDx=0;entryDy=0;" edge="1" parent="1" source="2PTjKoxte4hmcH_rGWA3-122" target="2PTjKoxte4hmcH_rGWA3-80">
          <mxGeometry width="160" relative="1" as="geometry">
            <mxPoint x="1680" y="390" as="sourcePoint" />
            <mxPoint x="1680" y="960" as="targetPoint" />
            <Array as="points">
              <mxPoint x="1770" y="223" />
              <mxPoint x="1770" y="1000" />
            </Array>
          </mxGeometry>
        </mxCell>
      </root>
    </mxGraphModel>
  </diagram>
</mxfile>
